# xmcd CD database file
#
# Track frame offsets:
#	150
#	8816
#	26780
#	33176
#	44146
#	59457
#	65037
#	75126
#	87597
#	99007
#	114393
#	126390
#	139239
#	153927
#	167377
#	180504
#	197529
#	216263
#	228550
#	242964
#
# Disc length: 3398 seconds
#
# Revision: 1
# Processed by: cddbd v1.5.1PL0 Copyright (c) Steve Scherf et al.
# Submitted via: CDex 1.51
#
DISCID=0c0d4414
DTITLE=Sampler - Golden Country Hits CD4
DYEAR=1900
DGENRE=Country
TTITLE0=Carl Perkins - Honky Tonk Gal
TTITLE1=Merle Haggard - What Am I Gonna Do
TTITLE2=Tammy Wynette - Welcome To My World
TTITLE3=Willie Nelson - Go Away
TTITLE4=Tina Turner - If This Was Our Last Time
TTITLE5=Rex Allen Senior - Cool Water
TTITLE6=Danny Davis and The Nashville Brass - Orange Blossom Special
TTITLE7=Tanya Tucker - San Antonio Stroll
TTITLE8=George Jones - She's My Rock
TTITLE9=Razzy Bailey - Your Cheating Heart
TTITLE10=Merle Haggard - The Fightin' Side Of Me
TTITLE11=Tina Turner - Freedom To Stay
TTITLE12=Mel Tills - Detroid City
TTITLE13=Hoyt Axton - Joy To The World
TTITLE14=Terri Gibbs - Fade Away
TTITLE15=Tanya Tucker - The Way They Drove Old Dixie Down
TTITLE16=T. G. Sheppard - Without You
TTITLE17=Willie Nelson - Shelter Of My Arms
TTITLE18=Freddy Fender - Jambalaya
TTITLE19=Ronnie McDowell - Burning Bridges
EXTD=
EXTT0=
EXTT1=
EXTT2=
EXTT3=
EXTT4=
EXTT5=
EXTT6=
EXTT7=
EXTT8=
EXTT9=
EXTT10=
EXTT11=
EXTT12=
EXTT13=
EXTT14=
EXTT15=
EXTT16=
EXTT17=
EXTT18=
EXTT19=
PLAYORDER=
